<svg xmlns="http://www.w3.org/2000/svg" width="90" height="90" viewBox="0 0 90 90">
  <defs>
    <style>
      .cls-1 {
        fill: #726658;
      }

      .cls-2 {
        fill: #9e9780;
      }

      .cls-3 {
        fill: #fff;
      }
    </style>
  </defs>
  <g id="Layer_1" data-name="Layer 1">
    <g>
      <path class="cls-1" d="M77.15,5H45L5,45V77.14A7.86,7.86,0,0,0,12.85,85H45L85,45V12.85A7.86,7.86,0,0,0,77.15,5Z"/>
      <g>
        <path class="cls-2" d="M45,5H12.85A7.86,7.86,0,0,0,5,12.85V45H45Z"/>
        <path class="cls-2" d="M45,85H77.15A7.86,7.86,0,0,0,85,77.14V45H45Z"/>
      </g>
      <g>
        <path class="cls-3" d="M43.4,79.34a3.23,3.23,0,0,1-2.19-1,3.14,3.14,0,0,1-1-2.23V72.07A27.38,27.38,0,0,1,17.92,49.74h-4a3.14,3.14,0,0,1-2.27-1,3.22,3.22,0,0,1-.94-2.24l0-3.07a3.26,3.26,0,0,1,1-2.27,3.11,3.11,0,0,1,2.23-1h4.07A27.39,27.39,0,0,1,40.25,17.91v-4a3.07,3.07,0,0,1,1-2.27,3.18,3.18,0,0,1,2.23-.94l3.07,0a3.26,3.26,0,0,1,2.27,1,3.16,3.16,0,0,1,1,2.23v4.07A27.38,27.38,0,0,1,72.08,40.25h4a3.1,3.1,0,0,1,2.27,1,3.18,3.18,0,0,1,.94,2.23l0,3.07a3.26,3.26,0,0,1-1,2.27,3.14,3.14,0,0,1-2.23,1H72.08A27.38,27.38,0,0,1,49.75,72.07v4a3,3,0,0,1-1,2.27,3.22,3.22,0,0,1-2.24.94l-3.08,0Zm3.15-23.82a3.21,3.21,0,0,1,2.23.93,3,3,0,0,1,1,2.32v3.34A17.74,17.74,0,0,0,62.12,49.74h-3.4a3.14,3.14,0,0,1-2.24-1,3.23,3.23,0,0,1-1-2.19l0-3.15a3.23,3.23,0,0,1,.93-2.23,3.08,3.08,0,0,1,2.24-1h3.42A17.7,17.7,0,0,0,49.75,27.88v3.39a3.18,3.18,0,0,1-1,2.25,3.22,3.22,0,0,1-2.19,1l-3.15,0a3.17,3.17,0,0,1-2.23-.93,3.05,3.05,0,0,1-1-2.32V27.88A17.67,17.67,0,0,0,27.89,40.25h3.39a3.08,3.08,0,0,1,2.24,1,3.23,3.23,0,0,1,1,2.19l0,3.15a3.21,3.21,0,0,1-.93,2.23,3.05,3.05,0,0,1-2.24,1H27.89A17.7,17.7,0,0,0,40.25,62.11v-3.4a3.14,3.14,0,0,1,1-2.24,3.23,3.23,0,0,1,2.19-1h.07Z"/>
        <path class="cls-1" d="M46.53,12.26a1.59,1.59,0,0,1,1.11.5,1.48,1.48,0,0,1,.48,1.09v5.46A25.92,25.92,0,0,1,70.68,41.87h5.48a1.44,1.44,0,0,1,1.07.48,1.51,1.51,0,0,1,.47,1.11l0,3.06a1.59,1.59,0,0,1-.5,1.11,1.48,1.48,0,0,1-1.09.48H70.68A25.92,25.92,0,0,1,48.12,70.67v5.44a1.46,1.46,0,0,1-.47,1.11,1.55,1.55,0,0,1-1.11.47l-3.07,0a1.59,1.59,0,0,1-1.11-.5,1.48,1.48,0,0,1-.48-1.09V70.67A25.92,25.92,0,0,1,19.32,48.11H13.84a1.47,1.47,0,0,1-1.07-.47,1.55,1.55,0,0,1-.47-1.11l0-3.07a1.59,1.59,0,0,1,.5-1.11,1.48,1.48,0,0,1,1.09-.48h5.46A25.93,25.93,0,0,1,41.88,19.31V13.87a1.46,1.46,0,0,1,.47-1.11,1.55,1.55,0,0,1,1.11-.47l3.07,0m0,20.6-3.07,0a1.63,1.63,0,0,1-1.11-.47,1.48,1.48,0,0,1-.47-1.12V25.86a19.43,19.43,0,0,0-16,16h5.41a1.48,1.48,0,0,1,1.09.48,1.59,1.59,0,0,1,.5,1.11l0,3.07a1.55,1.55,0,0,1-.47,1.11,1.45,1.45,0,0,1-1.07.47H25.87a19.44,19.44,0,0,0,16,16V58.71a1.48,1.48,0,0,1,.48-1.09,1.59,1.59,0,0,1,1.11-.5l3.07,0a1.55,1.55,0,0,1,1.11.47,1.46,1.46,0,0,1,.47,1.11v5.4a19.44,19.44,0,0,0,16-16H58.72a1.48,1.48,0,0,1-1.09-.48,1.59,1.59,0,0,1-.5-1.11l0-3.06a1.51,1.51,0,0,1,.47-1.11,1.42,1.42,0,0,1,1.07-.48h5.43a19.42,19.42,0,0,0-16-16v5.41a1.52,1.52,0,0,1-.48,1.1,1.62,1.62,0,0,1-1.11.49M46.53,9h0L43.44,9a4.83,4.83,0,0,0-3.35,1.39,4.69,4.69,0,0,0-1.46,3.47v2.67a29,29,0,0,0-22.05,22H13.86A4.91,4.91,0,0,0,9,43.33a.76.76,0,0,0,0,.15l0,3.07a4.83,4.83,0,0,0,1.39,3.35,4.72,4.72,0,0,0,3.4,1.46h2.74a29,29,0,0,0,22.05,22v2.72A4.93,4.93,0,0,0,43.34,81h.15l3.07,0a4.82,4.82,0,0,0,3.35-1.38,4.72,4.72,0,0,0,1.46-3.48V73.41a29,29,0,0,0,22.05-22h2.72A4.91,4.91,0,0,0,81,46.65a.76.76,0,0,0,0-.15l0-3.07a4.84,4.84,0,0,0-1.39-3.35,4.74,4.74,0,0,0-3.4-1.46H73.42a29,29,0,0,0-22.05-22V13.85A4.91,4.91,0,0,0,46.66,9Zm0,27.1h.13a4.93,4.93,0,0,0,4.71-4.82V30.16a16.12,16.12,0,0,1,8.46,8.46H58.7a4.73,4.73,0,0,0-3.39,1.45,4.81,4.81,0,0,0-1.4,3.36l0,3.07v.15a4.82,4.82,0,0,0,1.45,3.28,4.77,4.77,0,0,0,3.37,1.43h1.13a16.09,16.09,0,0,1-8.46,8.46V58.76a4.68,4.68,0,0,0-1.45-3.46,4.79,4.79,0,0,0-3.36-1.4l-3.07,0h-.15a4.93,4.93,0,0,0-4.71,4.82v1.13a16.09,16.09,0,0,1-8.46-8.46H31.3a4.72,4.72,0,0,0,3.39-1.44,4.83,4.83,0,0,0,1.4-3.37l0-3.07v-.15a4.93,4.93,0,0,0-4.82-4.71H30.17a16.12,16.12,0,0,1,8.46-8.46v1.07a4.71,4.71,0,0,0,1.45,3.46,4.85,4.85,0,0,0,3.36,1.4l3.07,0Z"/>
      </g>
    </g>
  </g>
</svg>
